# xmcd
#
# Track frame offsets:
#       150
#       20956
#       56068
#       102861
#       116773
#       127158
#       145607
#       158947
#       171649
#       199372
#       216391
#       232131
#       245889
#       263049
#
# Disc length: 3656 seconds
#
# Revision: 1
# Processed by: cddbd v1.5.1PL2 Copyright (c) Steve Scherf et al.
# Submitted via: MusiCat 1.1
#
DISCID=e80e460e
DTITLE=Nina Simone - RTL Jazz Collection
DYEAR=2006
DGENRE=
TTITLE0=House of the Rising Sun
TTITLE1=Children Go Where I Send You
TTITLE2=Work Song
TTITLE3=Gin House Blues
TTITLE4=Gimme A Pigfoot..
TTITLE5=Baubles Bangles and Beads
TTITLE6=Summertime (inst-live at Town hall)
TTITLE7=Summertime (vocal -live at Town Hall)
TTITLE8=Black Swan - live at Carnegie Hall
TTITLE9=Solitude
TTITLE10=Fine and Mellow  - live at Town Hall
TTITLE11=The Other Woman - live at Town hall
TTITLE12=Forbidden fruit
TTITLE13=It Don't Mean A Thing (If I Ain't Got Swing)
EXTD=\n\n
EXTT0=
EXTT1=
EXTT2=
EXTT3=
EXTT4=
EXTT5=
EXTT6=
EXTT7=
EXTT8=
EXTT9=
EXTT10=
EXTT11=
EXTT12=
EXTT13=
PLAYORDER=
